<?xml version="1.0" encoding="UTF-8" standalone="no"?>
<!-- Uploaded to: SVG Repo, www.svgrepo.com, Generator: SVG Repo Mixer Tools -->

<svg
   width="800px"
   height="800px"
   viewBox="0 0 16 16"
   fill="none"
   version="1.1"
   id="svg3"
   sodipodi:docname="link-svgrepo-com.svg"
   inkscape:version="1.4.2 (ebf0e940d0, 2025-05-08)"
   xmlns:inkscape="http://www.inkscape.org/namespaces/inkscape"
   xmlns:sodipodi="http://sodipodi.sourceforge.net/DTD/sodipodi-0.dtd"
   xmlns="http://www.w3.org/2000/svg"
   xmlns:svg="http://www.w3.org/2000/svg">
  <defs
     id="defs3" />
  <sodipodi:namedview
     id="namedview3"
     pagecolor="#ffffff"
     bordercolor="#000000"
     borderopacity="0.25"
     inkscape:showpageshadow="2"
     inkscape:pageopacity="0.0"
     inkscape:pagecheckerboard="0"
     inkscape:deskcolor="#d1d1d1"
     inkscape:zoom="0.02875"
     inkscape:cx="400"
     inkscape:cy="400"
     inkscape:window-width="1920"
     inkscape:window-height="1131"
     inkscape:window-x="0"
     inkscape:window-y="32"
     inkscape:window-maximized="1"
     inkscape:current-layer="svg3" />
  <path
     d="M7.05025 1.53553C8.03344 0.552348 9.36692 0 10.7574 0C13.6528 0 16 2.34721 16 5.24264C16 6.63308 15.4477 7.96656 14.4645 8.94975L12.4142 11L11 9.58579L13.0503 7.53553C13.6584 6.92742 14 6.10264 14 5.24264C14 3.45178 12.5482 2 10.7574 2C9.89736 2 9.07258 2.34163 8.46447 2.94975L6.41421 5L5 3.58579L7.05025 1.53553Z"
     fill="#000000"
     id="path1"
     style="fill:#9ca3af;fill-opacity:1" />
  <path
     d="M7.53553 13.0503L9.58579 11L11 12.4142L8.94975 14.4645C7.96656 15.4477 6.63308 16 5.24264 16C2.34721 16 0 13.6528 0 10.7574C0 9.36693 0.552347 8.03344 1.53553 7.05025L3.58579 5L5 6.41421L2.94975 8.46447C2.34163 9.07258 2 9.89736 2 10.7574C2 12.5482 3.45178 14 5.24264 14C6.10264 14 6.92742 13.6584 7.53553 13.0503Z"
     fill="#000000"
     id="path2"
     style="fill:#9ca3af;fill-opacity:1" />
  <path
     d="M5.70711 11.7071L11.7071 5.70711L10.2929 4.29289L4.29289 10.2929L5.70711 11.7071Z"
     fill="#000000"
     id="path3"
     style="fill:#9ca3af;fill-opacity:1" />
</svg>
